<mxfile host="app.diagrams.net" modified="2023-10-17T09:07:20.970Z" agent="Mozilla/5.0 (Windows NT 10.0; Win64; x64; rv:109.0) Gecko/20100101 Firefox/118.0" etag="EFsi3-AwU_43OMbOhWvY" version="22.0.4" type="device">
  <diagram name="Page-1" id="c9db0220-8083-56f3-ca83-edcdcd058819">
    <mxGraphModel dx="1687" dy="887" grid="1" gridSize="10" guides="1" tooltips="1" connect="1" arrows="1" fold="1" page="1" pageScale="1.5" pageWidth="826" pageHeight="1169" background="#ffffff" math="0" shadow="0">
      <root>
        <mxCell id="0" style=";html=1;" />
        <mxCell id="1" style=";html=1;" parent="0" />
        <mxCell id="tWmFhly02xOMn5f9qsDq-27" value="&lt;b&gt;&lt;i&gt;&lt;font data-font-src=&quot;https://fonts.googleapis.com/css?family=Architects+Daughter&quot; face=&quot;Architects Daughter&quot;&gt;Landingpage&lt;/font&gt;&lt;/i&gt;&lt;/b&gt;" style="rounded=0;whiteSpace=wrap;html=1;verticalAlign=top;align=left;fontSize=26;fillColor=#f5f5f5;fontColor=#333333;strokeColor=#666666;" vertex="1" parent="1">
          <mxGeometry x="510" y="130" width="710" height="520" as="geometry" />
        </mxCell>
        <mxCell id="tWmFhly02xOMn5f9qsDq-4" value="&lt;font style=&quot;font-size: 22px;&quot;&gt;&lt;b&gt;1. Semester&lt;/b&gt;&lt;/font&gt;" style="rounded=1;whiteSpace=wrap;html=1;verticalAlign=top;" vertex="1" parent="1">
          <mxGeometry x="740" y="170" width="210" height="410" as="geometry" />
        </mxCell>
        <mxCell id="tWmFhly02xOMn5f9qsDq-10" value="&lt;b&gt;FS 1&lt;/b&gt;" style="rounded=1;whiteSpace=wrap;html=1;" vertex="1" parent="1">
          <mxGeometry x="785" y="220" width="120" height="40" as="geometry" />
        </mxCell>
        <mxCell id="tWmFhly02xOMn5f9qsDq-13" value="&lt;b&gt;Mathe 1&lt;br&gt;&lt;/b&gt;" style="rounded=1;whiteSpace=wrap;html=1;" vertex="1" parent="1">
          <mxGeometry x="785" y="270" width="120" height="40" as="geometry" />
        </mxCell>
        <mxCell id="tWmFhly02xOMn5f9qsDq-14" value="&lt;b&gt;Prog 1&lt;br&gt;&lt;/b&gt;" style="rounded=1;whiteSpace=wrap;html=1;" vertex="1" parent="1">
          <mxGeometry x="785" y="420" width="120" height="40" as="geometry" />
        </mxCell>
        <mxCell id="tWmFhly02xOMn5f9qsDq-15" value="&lt;b&gt;ET 1&lt;br&gt;&lt;/b&gt;" style="rounded=1;whiteSpace=wrap;html=1;" vertex="1" parent="1">
          <mxGeometry x="785" y="320" width="120" height="40" as="geometry" />
        </mxCell>
        <mxCell id="tWmFhly02xOMn5f9qsDq-16" value="&lt;b&gt;Digitaltechnik&lt;/b&gt;" style="rounded=1;whiteSpace=wrap;html=1;" vertex="1" parent="1">
          <mxGeometry x="785" y="370" width="120" height="40" as="geometry" />
        </mxCell>
        <mxCell id="tWmFhly02xOMn5f9qsDq-17" value="&lt;b&gt;EinfÃ¼hrung CE&lt;br&gt;&lt;/b&gt;" style="rounded=1;whiteSpace=wrap;html=1;" vertex="1" parent="1">
          <mxGeometry x="785" y="475" width="120" height="40" as="geometry" />
        </mxCell>
        <mxCell id="tWmFhly02xOMn5f9qsDq-18" value="&lt;font style=&quot;font-size: 22px;&quot;&gt;&lt;b&gt;2. Semester&lt;/b&gt;&lt;/font&gt;" style="rounded=1;whiteSpace=wrap;html=1;verticalAlign=top;" vertex="1" parent="1">
          <mxGeometry x="970" y="170" width="210" height="410" as="geometry" />
        </mxCell>
        <mxCell id="tWmFhly02xOMn5f9qsDq-19" value="&lt;b&gt;FS 2&lt;br&gt;&lt;/b&gt;" style="rounded=1;whiteSpace=wrap;html=1;" vertex="1" parent="1">
          <mxGeometry x="1015" y="220" width="120" height="40" as="geometry" />
        </mxCell>
        <mxCell id="tWmFhly02xOMn5f9qsDq-20" value="&lt;b&gt;Mathe 2&lt;br&gt;&lt;/b&gt;" style="rounded=1;whiteSpace=wrap;html=1;" vertex="1" parent="1">
          <mxGeometry x="1015" y="270" width="120" height="40" as="geometry" />
        </mxCell>
        <mxCell id="tWmFhly02xOMn5f9qsDq-21" value="&lt;b&gt;Prog 2&lt;br&gt;&lt;/b&gt;" style="rounded=1;whiteSpace=wrap;html=1;" vertex="1" parent="1">
          <mxGeometry x="1015" y="420" width="120" height="40" as="geometry" />
        </mxCell>
        <mxCell id="tWmFhly02xOMn5f9qsDq-22" value="&lt;b&gt;ET 2&lt;br&gt;&lt;/b&gt;" style="rounded=1;whiteSpace=wrap;html=1;" vertex="1" parent="1">
          <mxGeometry x="1015" y="320" width="120" height="40" as="geometry" />
        </mxCell>
        <mxCell id="tWmFhly02xOMn5f9qsDq-23" value="&lt;b&gt;Physik&lt;br&gt;&lt;/b&gt;" style="rounded=1;whiteSpace=wrap;html=1;" vertex="1" parent="1">
          <mxGeometry x="1015" y="370" width="120" height="40" as="geometry" />
        </mxCell>
        <mxCell id="tWmFhly02xOMn5f9qsDq-24" value="&lt;b&gt;Ro&lt;/b&gt;" style="rounded=1;whiteSpace=wrap;html=1;" vertex="1" parent="1">
          <mxGeometry x="1015" y="475" width="120" height="40" as="geometry" />
        </mxCell>
        <mxCell id="tWmFhly02xOMn5f9qsDq-25" value="&lt;div&gt;&lt;font style=&quot;font-size: 13px;&quot;&gt;ET 1 is an abbrevation for &quot;Elektrotechnische Grundlagen 1&quot;;&lt;/font&gt;&lt;/div&gt;&lt;div&gt;&lt;font style=&quot;font-size: 13px;&quot;&gt;This abbrevation is well known among students&lt;br&gt; &lt;/font&gt;&lt;/div&gt;" style="shape=note;strokeWidth=2;fontSize=14;size=20;whiteSpace=wrap;html=1;fillColor=#fff2cc;strokeColor=#d6b656;fontColor=#666600;" vertex="1" parent="1">
          <mxGeometry x="570" y="280" width="150" height="110" as="geometry" />
        </mxCell>
        <mxCell id="tWmFhly02xOMn5f9qsDq-26" value="" style="endArrow=none;dashed=1;html=1;rounded=0;entryX=0;entryY=0.5;entryDx=0;entryDy=0;exitX=1.025;exitY=0.528;exitDx=0;exitDy=0;exitPerimeter=0;" edge="1" parent="1" source="tWmFhly02xOMn5f9qsDq-25" target="tWmFhly02xOMn5f9qsDq-15">
          <mxGeometry width="50" height="50" relative="1" as="geometry">
            <mxPoint x="670" y="360" as="sourcePoint" />
            <mxPoint x="680" y="390" as="targetPoint" />
          </mxGeometry>
        </mxCell>
        <mxCell id="tWmFhly02xOMn5f9qsDq-30" value="&lt;font face=&quot;Architects Daughter&quot;&gt;&lt;i&gt;&lt;b&gt;Dialog after clicking a module&lt;br&gt;&lt;/b&gt;&lt;/i&gt;&lt;/font&gt;" style="rounded=0;whiteSpace=wrap;html=1;verticalAlign=top;align=left;fontSize=26;fillColor=#f5f5f5;fontColor=#333333;strokeColor=#666666;" vertex="1" parent="1">
          <mxGeometry x="510" y="670" width="710" height="870" as="geometry" />
        </mxCell>
        <mxCell id="tWmFhly02xOMn5f9qsDq-32" value="&lt;font style=&quot;font-size: 22px;&quot;&gt;&lt;b&gt;Mathe 1&lt;br&gt;&lt;/b&gt;&lt;/font&gt;" style="rounded=1;whiteSpace=wrap;html=1;verticalAlign=top;" vertex="1" parent="1">
          <mxGeometry x="520" y="725" width="690" height="805" as="geometry" />
        </mxCell>
        <mxCell id="tWmFhly02xOMn5f9qsDq-34" value="&lt;div align=&quot;center&quot;&gt;&lt;b&gt;CE 11&amp;nbsp;&amp;nbsp;&amp;nbsp; &lt;/b&gt;&lt;/div&gt;" style="rounded=0;whiteSpace=wrap;html=1;align=center;fontSize=19;" vertex="1" parent="1">
          <mxGeometry x="555" y="790" width="195" height="50" as="geometry" />
        </mxCell>
        <mxCell id="tWmFhly02xOMn5f9qsDq-99" value="&lt;div align=&quot;left&quot;&gt;&lt;b&gt;&amp;nbsp;Mathematik 1&lt;br&gt;&lt;/b&gt;&lt;/div&gt;" style="rounded=0;whiteSpace=wrap;html=1;align=left;fontSize=19;" vertex="1" parent="1">
          <mxGeometry x="750" y="790" width="420" height="50" as="geometry" />
        </mxCell>
        <mxCell id="tWmFhly02xOMn5f9qsDq-100" value="Lernergebnis/ Kompetenzen" style="rounded=0;whiteSpace=wrap;html=1;align=center;fontSize=19;" vertex="1" parent="1">
          <mxGeometry x="555" y="840" width="195" height="60" as="geometry" />
        </mxCell>
        <mxCell id="tWmFhly02xOMn5f9qsDq-101" value="&lt;div align=&quot;left&quot;&gt;Die Studierenden kennen die elementaren Grundlagen...&lt;/div&gt;" style="rounded=0;whiteSpace=wrap;html=1;align=left;fontSize=19;" vertex="1" parent="1">
          <mxGeometry x="750" y="840" width="420" height="60" as="geometry" />
        </mxCell>
        <mxCell id="tWmFhly02xOMn5f9qsDq-108" value="" style="shape=triangle;strokeColor=none;fillColor=#000000;direction=south;rounded=0;shadow=1;fontSize=12;fontColor=#000000;align=center;html=1;aspect=fixed;" vertex="1" parent="1">
          <mxGeometry x="1150" y="877" width="18" height="14.4" as="geometry" />
        </mxCell>
        <mxCell id="tWmFhly02xOMn5f9qsDq-109" value="Verwendbarkeit des Moduls" style="rounded=0;whiteSpace=wrap;html=1;align=center;fontSize=19;" vertex="1" parent="1">
          <mxGeometry x="555" y="900" width="195" height="60" as="geometry" />
        </mxCell>
        <mxCell id="tWmFhly02xOMn5f9qsDq-110" value="TBD" style="rounded=0;whiteSpace=wrap;html=1;align=left;fontSize=19;" vertex="1" parent="1">
          <mxGeometry x="750" y="900" width="420" height="60" as="geometry" />
        </mxCell>
        <mxCell id="tWmFhly02xOMn5f9qsDq-119" value="Anerkannte Module" style="rounded=0;whiteSpace=wrap;html=1;align=center;fontSize=19;" vertex="1" parent="1">
          <mxGeometry x="555" y="960" width="195" height="60" as="geometry" />
        </mxCell>
        <mxCell id="tWmFhly02xOMn5f9qsDq-120" value="TBD" style="rounded=0;whiteSpace=wrap;html=1;align=left;fontSize=19;" vertex="1" parent="1">
          <mxGeometry x="750" y="960" width="420" height="60" as="geometry" />
        </mxCell>
        <mxCell id="tWmFhly02xOMn5f9qsDq-121" value="Pflicht / Wahlpflicht" style="rounded=0;whiteSpace=wrap;html=1;align=center;fontSize=19;" vertex="1" parent="1">
          <mxGeometry x="555" y="1020" width="195" height="60" as="geometry" />
        </mxCell>
        <mxCell id="tWmFhly02xOMn5f9qsDq-122" value="Pflicht" style="rounded=0;whiteSpace=wrap;html=1;align=left;fontSize=19;" vertex="1" parent="1">
          <mxGeometry x="750" y="1020" width="420" height="60" as="geometry" />
        </mxCell>
        <mxCell id="tWmFhly02xOMn5f9qsDq-123" value="Form" style="rounded=0;whiteSpace=wrap;html=1;align=center;fontSize=19;" vertex="1" parent="1">
          <mxGeometry x="555" y="1080" width="195" height="60" as="geometry" />
        </mxCell>
        <mxCell id="tWmFhly02xOMn5f9qsDq-124" value="SL/BÃ" style="rounded=0;whiteSpace=wrap;html=1;align=left;fontSize=19;" vertex="1" parent="1">
          <mxGeometry x="750" y="1080" width="420" height="60" as="geometry" />
        </mxCell>
        <mxCell id="tWmFhly02xOMn5f9qsDq-125" value="SWS" style="rounded=0;whiteSpace=wrap;html=1;align=center;fontSize=19;" vertex="1" parent="1">
          <mxGeometry x="555" y="1140" width="195" height="60" as="geometry" />
        </mxCell>
        <mxCell id="tWmFhly02xOMn5f9qsDq-126" value="5/1" style="rounded=0;whiteSpace=wrap;html=1;align=left;fontSize=19;" vertex="1" parent="1">
          <mxGeometry x="750" y="1140" width="420" height="60" as="geometry" />
        </mxCell>
        <mxCell id="tWmFhly02xOMn5f9qsDq-127" value="LP&lt;span style=&quot;white-space: pre;&quot;&gt;&#x9;&lt;/span&gt;" style="rounded=0;whiteSpace=wrap;html=1;align=center;fontSize=19;" vertex="1" parent="1">
          <mxGeometry x="555" y="1200" width="195" height="60" as="geometry" />
        </mxCell>
        <mxCell id="tWmFhly02xOMn5f9qsDq-128" value="6" style="rounded=0;whiteSpace=wrap;html=1;align=left;fontSize=19;" vertex="1" parent="1">
          <mxGeometry x="750" y="1200" width="420" height="60" as="geometry" />
        </mxCell>
        <mxCell id="tWmFhly02xOMn5f9qsDq-129" value="LP&lt;span style=&quot;white-space: pre;&quot;&gt;&#x9;&lt;/span&gt;" style="rounded=0;whiteSpace=wrap;html=1;align=center;fontSize=19;" vertex="1" parent="1">
          <mxGeometry x="555" y="1260" width="195" height="60" as="geometry" />
        </mxCell>
        <mxCell id="tWmFhly02xOMn5f9qsDq-130" value="6" style="rounded=0;whiteSpace=wrap;html=1;align=left;fontSize=19;" vertex="1" parent="1">
          <mxGeometry x="750" y="1260" width="420" height="60" as="geometry" />
        </mxCell>
        <mxCell id="tWmFhly02xOMn5f9qsDq-131" value="LP&lt;span style=&quot;white-space: pre;&quot;&gt;&#x9;&lt;/span&gt;" style="rounded=0;whiteSpace=wrap;html=1;align=center;fontSize=19;" vertex="1" parent="1">
          <mxGeometry x="555" y="1320" width="195" height="60" as="geometry" />
        </mxCell>
        <mxCell id="tWmFhly02xOMn5f9qsDq-132" value="6" style="rounded=0;whiteSpace=wrap;html=1;align=left;fontSize=19;" vertex="1" parent="1">
          <mxGeometry x="750" y="1320" width="420" height="60" as="geometry" />
        </mxCell>
        <mxCell id="tWmFhly02xOMn5f9qsDq-133" value="LP&lt;span style=&quot;white-space: pre;&quot;&gt;&#x9;&lt;/span&gt;" style="rounded=0;whiteSpace=wrap;html=1;align=center;fontSize=19;" vertex="1" parent="1">
          <mxGeometry x="555" y="1380" width="195" height="60" as="geometry" />
        </mxCell>
        <mxCell id="tWmFhly02xOMn5f9qsDq-134" value="6" style="rounded=0;whiteSpace=wrap;html=1;align=left;fontSize=19;" vertex="1" parent="1">
          <mxGeometry x="750" y="1380" width="420" height="60" as="geometry" />
        </mxCell>
      </root>
    </mxGraphModel>
  </diagram>
</mxfile>
